<svg id="svg" version="1.1" width="165" height="70" xmlns="http://www.w3.org/2000/svg" xmlns:xlink="http://www.w3.org/1999/xlink" style="display: block;"><g id="svgg"><path id="path0" d="M245.300 40.676 C 245.685 40.776,246.315 40.776,246.700 40.676 C 247.085 40.575,246.770 40.493,246.000 40.493 C 245.230 40.493,244.915 40.575,245.300 40.676 M297.700 40.676 C 298.085 40.776,298.715 40.776,299.100 40.676 C 299.485 40.575,299.170 40.493,298.400 40.493 C 297.630 40.493,297.315 40.575,297.700 40.676 M265.790 70.600 C 265.790 86.880,265.839 93.482,265.900 85.270 C 265.960 77.059,265.960 63.739,265.900 55.670 C 265.839 47.602,265.790 54.320,265.790 70.600 M356.188 70.000 C 356.188 83.530,356.238 89.065,356.300 82.300 C 356.361 75.535,356.361 64.465,356.300 57.700 C 356.238 50.935,356.188 56.470,356.188 70.000 M308.800 73.080 C 308.690 88.084,308.736 100.224,308.903 100.057 C 309.069 99.891,309.159 87.615,309.103 72.777 L 309.000 45.800 308.800 73.080 M332.000 67.425 C 331.034 67.791,330.855 67.962,331.424 67.977 C 331.876 67.990,332.596 67.736,333.024 67.413 C 333.935 66.723,333.853 66.724,332.000 67.425 M214.915 70.696 C 216.188 70.776,218.168 70.775,219.315 70.694 C 220.462 70.614,219.420 70.549,217.000 70.550 C 214.580 70.551,213.642 70.616,214.915 70.696 M250.400 97.105 C 250.400 97.346,250.117 97.826,249.771 98.171 C 249.426 98.517,249.329 98.800,249.557 98.800 C 250.064 98.800,250.956 97.223,250.632 96.899 C 250.505 96.771,250.400 96.864,250.400 97.105 M273.900 98.296 C 275.275 98.374,277.525 98.374,278.900 98.296 C 280.275 98.218,279.150 98.154,276.400 98.154 C 273.650 98.154,272.525 98.218,273.900 98.296 M227.776 123.318 C 227.667 123.602,227.628 126.527,227.690 129.818 L 227.803 135.800 228.002 129.299 C 228.197 122.909,228.173 122.284,227.776 123.318 M254.177 123.317 C 254.068 123.601,254.029 126.616,254.091 130.017 L 254.203 136.200 254.401 129.499 C 254.597 122.915,254.574 122.282,254.177 123.317 M46.764 135.133 C 46.980 135.536,47.471 136.121,47.855 136.433 C 48.287 136.784,48.190 136.504,47.601 135.700 C 46.551 134.265,46.157 133.998,46.764 135.133 " stroke="none" fill="#ffffff" fill-rule="evenodd"></path><path id="path1" d="M175.748 50.400 C 175.748 52.710,175.814 53.655,175.895 52.500 C 175.976 51.345,175.976 49.455,175.895 48.300 C 175.814 47.145,175.748 48.090,175.748 50.400 M175.763 88.400 C 175.763 92.030,175.823 93.515,175.898 91.700 C 175.972 89.885,175.972 86.915,175.898 85.100 C 175.823 83.285,175.763 84.770,175.763 88.400 M188.914 132.200 C 188.917 133.300,188.995 133.703,189.087 133.095 C 189.179 132.486,189.177 131.586,189.082 131.095 C 188.987 130.603,188.911 131.100,188.914 132.200 " stroke="none" fill="#800080" fill-rule="evenodd"></path><path id="path2" d="M163.753 130.600 C 163.753 133.240,163.818 134.268,163.897 132.884 C 163.975 131.501,163.974 129.341,163.895 128.084 C 163.816 126.828,163.752 127.960,163.753 130.600 " stroke="none" fill="#ff00ff" fill-rule="evenodd"></path><path id="path3" d="M95.257 20.249 C 87.907 22.823,83.409 36.283,87.351 43.906 C 88.082 45.319,90.607 48.000,91.207 48.000 C 91.417 48.000,90.916 48.625,90.094 49.389 C 88.986 50.419,88.781 50.781,89.300 50.789 C 92.889 50.845,83.339 59.336,73.403 64.926 C 68.578 67.640,64.400 71.257,64.400 72.720 C 64.400 73.959,64.658 73.820,65.449 72.152 C 66.282 70.399,69.340 67.932,73.279 65.838 C 79.881 62.329,84.117 59.186,88.863 54.277 C 91.070 51.995,91.679 51.571,92.410 51.803 C 93.249 52.069,93.283 51.995,93.081 50.342 L 92.867 48.600 94.600 48.562 C 97.197 48.506,98.764 47.715,101.236 45.211 C 111.197 35.123,106.676 16.249,95.257 20.249 M50.600 32.730 C 41.209 37.173,53.198 55.547,63.210 52.056 C 64.453 51.623,64.486 51.640,64.297 52.628 C 64.147 53.410,64.240 53.593,64.696 53.418 C 65.186 53.230,65.240 53.455,65.004 54.695 C 64.846 55.523,64.666 56.740,64.604 57.400 C 64.428 59.271,64.035 60.815,63.128 63.200 C 61.939 66.327,61.963 73.352,63.167 74.506 C 63.586 74.908,63.619 74.663,63.341 73.200 C 62.701 69.823,62.972 65.998,64.091 62.600 C 65.147 59.397,65.527 57.508,65.681 54.701 C 65.740 53.630,65.978 53.134,66.516 52.963 C 67.237 52.734,67.233 52.687,66.416 51.817 L 65.563 50.909 66.427 49.444 C 68.867 45.308,65.381 37.417,59.654 34.109 C 58.634 33.520,57.710 32.940,57.600 32.819 C 56.867 32.016,52.234 31.957,50.600 32.730 M152.567 40.522 C 152.252 40.699,151.856 40.758,151.688 40.654 C 151.005 40.232,146.989 42.621,146.400 43.800 C 145.369 45.861,145.513 96.125,146.554 97.846 C 148.944 101.793,161.875 102.569,165.611 98.989 C 167.584 97.099,167.588 97.047,167.582 70.658 C 167.575 42.011,167.704 43.109,164.162 41.542 C 161.548 40.386,153.995 39.721,152.567 40.522 M182.811 40.474 C 182.405 40.624,181.524 40.810,180.852 40.887 C 177.184 41.305,175.945 43.856,175.964 50.947 C 175.983 57.886,176.415 59.339,179.774 63.739 C 180.558 64.766,181.200 65.770,181.200 65.970 C 181.200 66.170,181.363 66.393,181.563 66.467 C 182.297 66.736,188.838 75.469,189.902 77.600 C 191.013 79.826,191.823 93.862,191.024 97.045 C 190.584 98.801,187.094 99.582,184.033 98.610 C 182.713 98.192,182.400 96.220,182.400 88.340 L 182.400 80.800 179.100 80.800 L 175.800 80.800 175.868 88.403 C 175.970 99.628,176.626 100.514,185.259 101.080 C 195.875 101.775,197.605 100.012,197.590 88.513 C 197.576 77.632,197.394 77.168,188.800 66.119 C 182.185 57.616,182.321 57.955,182.474 50.314 C 182.628 42.638,182.654 42.591,186.818 42.618 C 191.156 42.647,191.083 42.477,191.154 52.700 L 191.200 59.200 194.424 59.200 L 197.648 59.200 197.524 51.625 L 197.400 44.051 196.253 42.854 C 194.995 41.542,193.830 40.999,191.405 40.594 C 189.173 40.222,183.698 40.145,182.811 40.474 M213.822 40.312 C 213.760 40.374,213.136 40.497,212.436 40.585 C 209.376 40.973,206.634 43.157,206.394 45.400 C 206.346 45.840,206.329 58.395,206.354 73.300 L 206.400 100.400 209.400 100.400 L 212.400 100.400 212.400 85.400 L 212.400 70.400 217.000 70.400 L 221.600 70.400 221.600 85.400 L 221.600 100.400 224.810 100.400 L 228.021 100.400 227.910 72.500 L 227.800 44.600 226.867 43.291 C 225.914 41.956,223.967 40.911,221.806 40.575 C 220.408 40.357,213.988 40.146,213.822 40.312 M114.400 70.537 L 114.400 100.341 117.814 100.471 L 121.229 100.600 121.114 85.261 L 121.000 69.922 124.222 70.105 C 130.129 70.440,129.995 70.041,129.998 87.300 L 130.000 100.400 133.000 100.400 L 136.000 100.400 136.000 86.614 C 136.000 70.868,135.939 70.504,133.140 69.580 L 131.584 69.067 133.054 68.233 C 135.990 66.570,135.985 66.593,136.019 55.304 C 136.063 40.912,136.193 41.050,122.300 40.848 L 114.400 40.733 114.400 70.537 M160.100 43.522 L 161.000 44.422 161.122 69.711 C 161.269 100.169,161.400 99.392,156.200 98.938 C 152.011 98.572,152.383 101.309,152.382 70.811 C 152.382 50.334,152.495 44.168,152.877 43.707 C 154.156 42.167,158.630 42.052,160.100 43.522 M219.856 42.900 C 221.413 43.607,221.553 44.706,221.588 56.581 L 221.622 68.026 217.111 67.913 L 212.600 67.800 212.600 56.400 C 212.600 44.300,212.713 43.502,214.518 42.835 C 215.714 42.392,218.821 42.430,219.856 42.900 M128.362 43.912 C 129.745 44.944,129.776 45.201,129.789 55.810 C 129.803 67.656,129.634 67.959,123.000 67.991 L 121.000 68.000 121.000 55.349 L 121.000 42.697 124.198 42.944 C 126.347 43.109,127.713 43.427,128.362 43.912 M67.600 77.934 C 67.600 78.117,68.602 78.957,69.826 79.800 C 71.050 80.643,72.669 82.054,73.423 82.935 C 74.971 84.743,75.741 84.699,74.396 82.880 C 72.946 80.918,67.600 77.028,67.600 77.934 M66.000 79.918 C 66.000 80.129,66.270 80.526,66.600 80.800 C 66.930 81.074,67.200 81.438,67.200 81.609 C 67.200 81.780,67.786 82.523,68.502 83.260 C 69.218 83.997,70.279 85.230,70.860 86.000 C 71.441 86.770,72.034 87.286,72.178 87.147 C 72.447 86.887,67.023 79.907,66.365 79.667 C 66.164 79.593,66.000 79.706,66.000 79.918 M102.400 111.400 C 102.400 111.932,118.311 112.000,243.200 112.000 C 368.089 112.000,384.000 111.932,384.000 111.400 C 384.000 110.868,368.089 110.800,243.200 110.800 C 118.311 110.800,102.400 110.868,102.400 111.400 M150.700 123.124 L 149.200 123.248 149.200 129.424 C 149.200 134.647,149.293 135.600,149.800 135.600 C 150.277 135.600,150.400 135.019,150.400 132.775 L 150.400 129.949 151.699 130.075 C 152.906 130.191,153.070 130.391,153.999 132.897 C 154.834 135.145,156.000 136.524,156.000 135.263 C 156.000 134.619,154.380 130.220,154.004 129.844 C 153.768 129.608,153.995 129.126,154.613 128.553 C 157.277 126.084,154.893 122.777,150.700 123.124 M185.228 123.501 C 179.047 126.653,182.106 137.071,188.800 135.664 L 190.200 135.369 190.316 132.085 L 190.432 128.800 188.616 128.800 C 187.268 128.800,186.800 128.955,186.800 129.400 C 186.800 129.800,187.200 130.000,188.000 130.000 C 189.189 130.000,189.200 130.021,189.200 132.213 C 189.200 137.271,183.573 134.868,183.364 129.721 C 183.188 125.377,186.100 122.741,189.226 124.414 C 189.838 124.741,190.000 124.697,190.000 124.204 C 190.000 122.857,187.278 122.456,185.228 123.501 M199.222 123.307 C 195.107 125.389,195.832 135.042,200.161 135.827 C 203.446 136.423,205.414 133.633,205.092 128.839 C 204.745 123.679,202.558 121.618,199.222 123.307 M212.964 123.189 C 212.025 123.568,211.076 125.512,211.271 126.652 C 211.424 127.542,212.093 128.285,214.061 129.749 C 217.190 132.077,215.949 135.999,212.571 134.459 C 211.731 134.077,211.600 134.118,211.600 134.766 C 211.600 136.226,214.676 136.232,216.227 134.775 C 217.983 133.125,217.593 131.485,214.800 128.768 C 211.776 125.828,212.051 123.395,215.314 124.214 C 216.560 124.527,217.098 123.788,216.037 123.220 C 215.118 122.728,214.128 122.718,212.964 123.189 M229.700 123.119 L 228.000 123.246 228.000 129.423 C 228.000 135.443,228.021 135.600,228.845 135.600 C 229.640 135.600,229.681 135.433,229.532 132.790 C 229.414 130.706,229.498 130.029,229.857 130.166 C 231.914 130.956,234.419 128.737,234.180 126.337 C 233.928 123.802,232.670 122.898,229.700 123.119 M255.900 123.118 L 254.400 123.248 254.400 129.424 C 254.400 134.647,254.493 135.600,255.000 135.600 C 255.476 135.600,255.600 135.022,255.600 132.800 L 255.600 130.000 256.757 130.000 C 257.770 130.000,258.240 130.410,258.590 131.600 C 258.622 131.710,258.953 132.497,259.324 133.349 C 259.696 134.201,260.000 135.056,260.000 135.249 C 260.000 135.442,260.270 135.600,260.600 135.600 C 261.569 135.600,260.181 130.736,258.927 129.736 C 258.430 129.339,258.459 129.235,259.129 129.022 C 262.941 127.813,260.171 122.748,255.900 123.118 M309.591 123.764 C 308.135 126.094,308.340 126.982,310.850 129.245 C 314.373 132.421,313.864 135.807,310.062 134.482 C 309.124 134.155,308.816 134.182,308.652 134.608 C 308.395 135.278,310.583 136.075,311.955 135.810 C 313.621 135.487,314.400 134.439,314.400 132.520 C 314.400 130.693,314.188 130.384,311.269 127.936 C 309.024 126.054,309.855 123.677,312.603 124.123 C 313.638 124.291,314.000 124.206,314.000 123.793 C 314.000 123.472,313.450 123.153,312.700 123.039 C 310.700 122.736,310.152 122.864,309.591 123.764 M348.200 123.283 C 345.367 124.908,345.940 127.525,349.717 130.219 C 352.444 132.163,350.534 135.970,347.616 134.408 C 346.769 133.955,346.282 134.363,346.756 135.128 C 347.595 136.487,351.188 135.823,351.941 134.170 C 352.860 132.152,352.524 131.223,349.975 128.744 C 347.984 126.808,347.599 126.227,347.825 125.493 C 348.209 124.242,348.266 124.210,350.026 124.256 C 351.050 124.283,351.600 124.121,351.600 123.792 C 351.600 122.805,349.565 122.500,348.200 123.283 M136.599 127.700 C 135.767 130.175,134.918 132.531,134.711 132.935 C 134.008 134.307,133.943 135.600,134.576 135.600 C 134.921 135.600,135.370 134.925,135.652 133.983 L 136.137 132.367 138.768 132.483 C 140.216 132.547,141.415 132.780,141.433 133.000 C 141.538 134.291,142.169 135.600,142.687 135.600 C 143.144 135.600,143.219 135.338,143.002 134.500 C 142.845 133.895,142.682 133.220,142.639 133.000 C 142.596 132.780,141.859 130.485,141.002 127.900 C 138.958 121.736,138.607 121.720,136.599 127.700 M161.200 123.600 C 161.200 123.820,161.830 124.000,162.600 124.000 L 164.000 124.000 164.000 129.800 C 164.000 134.689,164.094 135.600,164.600 135.600 C 165.106 135.600,165.200 134.689,165.200 129.800 L 165.200 124.000 166.576 124.000 C 167.333 124.000,168.064 123.820,168.200 123.600 C 168.358 123.345,167.137 123.200,164.824 123.200 C 162.675 123.200,161.200 123.363,161.200 123.600 M174.400 129.400 C 174.400 133.267,174.551 135.600,174.800 135.600 C 175.049 135.600,175.200 133.267,175.200 129.400 C 175.200 125.533,175.049 123.200,174.800 123.200 C 174.551 123.200,174.400 125.533,174.400 129.400 M242.097 126.700 C 241.435 128.625,240.579 131.190,240.194 132.400 C 239.809 133.610,239.316 134.825,239.098 135.100 C 238.808 135.467,238.924 135.600,239.536 135.600 C 240.170 135.600,240.472 135.217,240.800 134.000 L 241.231 132.400 243.799 132.400 L 246.368 132.400 246.847 134.000 C 247.150 135.010,247.565 135.600,247.974 135.600 C 248.513 135.600,248.282 134.553,246.611 129.400 C 244.162 121.849,243.832 121.652,242.097 126.700 M269.939 124.100 C 269.669 124.595,269.418 125.270,269.380 125.600 C 269.341 125.930,268.580 128.315,267.689 130.900 C 266.271 135.010,266.155 135.600,266.763 135.600 C 267.235 135.600,267.578 135.116,267.829 134.100 L 268.200 132.600 270.852 132.483 L 273.505 132.366 273.774 133.804 C 274.009 135.052,274.912 136.021,275.394 135.540 C 275.539 135.394,272.909 126.872,271.924 124.300 C 271.414 122.966,270.600 122.884,269.939 124.100 M286.000 129.400 C 286.000 133.267,286.151 135.600,286.400 135.600 C 286.631 135.600,286.800 134.333,286.800 132.600 L 286.800 129.600 288.800 129.600 C 291.345 129.600,291.426 128.884,288.900 128.722 L 287.000 128.600 287.000 126.400 L 287.000 124.200 289.110 124.079 C 291.970 123.914,291.373 123.200,288.376 123.200 L 286.000 123.200 286.000 129.400 M297.200 129.400 L 297.200 135.600 300.000 135.600 C 302.222 135.600,302.800 135.476,302.800 135.000 C 302.800 134.539,302.289 134.400,300.600 134.400 L 298.400 134.400 298.400 132.000 L 298.400 129.600 300.200 129.600 C 301.190 129.600,302.000 129.420,302.000 129.200 C 302.000 128.980,301.190 128.800,300.200 128.800 L 298.400 128.800 298.400 126.400 L 298.400 124.000 300.400 124.000 C 301.500 124.000,302.400 123.820,302.400 123.600 C 302.400 123.374,301.267 123.200,299.800 123.200 L 297.200 123.200 297.200 129.400 M320.000 123.600 C 320.000 123.820,320.630 124.000,321.400 124.000 L 322.800 124.000 322.800 129.800 C 322.800 134.689,322.894 135.600,323.400 135.600 C 323.906 135.600,324.000 134.689,324.000 129.800 L 324.000 124.000 325.400 124.000 C 326.170 124.000,326.800 123.820,326.800 123.600 C 326.800 123.365,325.400 123.200,323.400 123.200 C 321.400 123.200,320.000 123.365,320.000 123.600 M335.439 124.324 C 335.105 124.970,334.945 125.611,335.083 125.749 C 335.221 125.887,335.113 126.000,334.843 126.000 C 334.573 126.000,334.450 126.157,334.568 126.349 C 334.809 126.739,332.636 133.434,332.032 134.161 C 331.578 134.709,332.191 135.940,332.678 135.460 C 332.855 135.285,333.195 134.571,333.434 133.871 C 333.857 132.634,333.939 132.597,336.513 132.482 L 339.157 132.364 339.429 133.814 C 339.672 135.110,340.520 136.013,341.022 135.512 C 341.417 135.117,337.216 123.398,336.635 123.275 C 336.310 123.206,335.775 123.675,335.439 124.324 M153.637 124.685 C 155.128 126.216,153.848 128.800,151.600 128.800 L 150.400 128.800 150.400 126.348 L 150.400 123.895 151.865 124.133 C 152.671 124.264,153.469 124.512,153.637 124.685 M202.319 124.337 C 204.425 124.591,204.490 133.281,202.394 134.403 C 199.694 135.848,198.000 133.947,198.000 129.472 C 198.000 124.724,198.693 123.900,202.319 124.337 M232.505 124.745 C 233.906 126.146,232.479 129.200,230.424 129.200 C 229.429 129.200,229.400 129.125,229.400 126.564 L 229.400 123.928 230.765 124.149 C 231.516 124.271,232.299 124.539,232.505 124.745 M259.117 125.091 C 260.223 126.602,259.106 128.490,257.008 128.655 L 255.600 128.766 255.600 126.331 L 255.600 123.895 257.099 124.139 C 257.923 124.272,258.831 124.701,259.117 125.091 M139.763 127.685 C 140.121 128.942,140.520 130.247,140.650 130.585 C 140.843 131.089,140.516 131.200,138.843 131.200 C 136.490 131.200,136.525 131.308,137.679 127.612 C 138.667 124.450,138.843 124.456,139.763 127.685 M244.826 127.500 C 245.316 128.985,245.800 130.425,245.901 130.700 C 246.034 131.061,245.483 131.200,243.913 131.200 L 241.740 131.200 242.768 128.000 C 243.997 124.174,243.748 124.235,244.826 127.500 M271.696 127.297 C 271.764 127.793,271.941 128.393,272.089 128.628 C 273.209 130.410,272.792 131.200,270.731 131.200 C 269.081 131.200,268.757 131.088,268.950 130.585 C 269.080 130.247,269.481 128.942,269.842 127.685 C 270.811 124.310,271.272 124.214,271.696 127.297 M338.398 130.900 C 338.399 131.065,337.481 131.200,336.357 131.200 C 334.895 131.200,334.365 131.058,334.492 130.700 C 334.590 130.425,335.102 128.958,335.630 127.440 L 336.590 124.680 337.493 127.640 C 337.989 129.268,338.396 130.735,338.398 130.900 " stroke="none" fill="#a9518b" fill-rule="evenodd"></path><path id="path4" d="M64.447 11.730 C 62.302 12.538,59.777 15.579,59.446 17.751 C 59.408 17.998,59.254 18.397,59.104 18.637 C 58.783 19.150,58.975 26.188,59.346 27.500 C 59.486 27.995,59.680 28.761,59.777 29.201 C 60.802 33.834,66.506 39.607,70.676 40.232 C 72.100 40.446,72.397 40.626,72.188 41.149 C 71.463 42.966,71.541 43.709,72.432 43.476 C 73.284 43.253,73.294 43.305,73.053 46.700 C 72.805 50.206,71.391 55.600,70.721 55.600 C 70.518 55.600,70.464 55.780,70.600 56.000 C 70.736 56.220,70.657 56.400,70.424 56.400 C 70.191 56.400,70.000 56.630,70.000 56.911 C 70.000 57.337,66.924 61.967,65.668 63.430 C 63.886 65.507,62.811 69.910,63.331 73.000 C 63.587 74.522,63.498 74.710,61.500 76.853 C 60.345 78.092,58.230 80.403,56.800 81.987 C 53.398 85.756,51.560 86.953,49.039 87.041 C 44.729 87.192,43.584 86.119,36.971 75.733 C 35.056 72.727,33.321 71.586,31.855 72.370 C 30.015 73.355,30.202 74.958,32.667 79.319 C 33.400 80.616,34.000 81.894,34.000 82.158 C 34.000 82.423,34.169 82.811,34.375 83.020 C 34.582 83.229,35.407 84.731,36.209 86.358 C 41.423 96.929,36.624 100.561,20.600 98.168 C 13.435 97.099,9.817 98.174,9.457 101.481 C 9.196 103.869,10.904 105.579,14.200 106.229 C 16.559 106.694,17.134 106.792,18.600 106.983 C 23.225 107.585,26.942 108.161,29.293 108.639 C 29.895 108.761,30.477 108.854,30.587 108.846 C 30.944 108.820,36.064 110.812,37.149 111.398 C 39.720 112.788,42.839 117.089,43.405 120.023 C 43.494 120.486,43.657 121.165,43.767 121.532 C 43.878 121.899,44.056 122.697,44.163 123.304 C 44.270 123.911,44.557 125.484,44.800 126.800 C 45.043 128.116,45.332 129.689,45.440 130.296 C 46.632 136.955,51.462 139.720,53.847 135.109 C 54.584 133.683,54.322 126.806,53.407 123.600 C 52.416 120.124,52.409 107.203,53.398 105.603 C 53.486 105.461,53.641 104.887,53.742 104.328 C 55.203 96.275,60.219 86.236,65.758 80.279 C 66.331 79.663,66.800 79.003,66.800 78.813 C 66.800 78.622,66.942 78.407,67.114 78.333 C 68.683 77.668,69.677 74.061,68.660 72.723 C 68.176 72.086,65.053 71.825,65.436 72.455 C 65.521 72.595,65.339 72.918,65.031 73.174 C 62.053 75.646,64.870 65.533,68.375 61.172 C 72.062 56.584,73.861 51.610,74.115 45.300 C 74.162 44.145,74.380 43.197,74.600 43.194 C 75.953 43.173,76.131 42.448,75.112 41.112 L 74.081 39.759 75.226 39.253 C 78.184 37.943,80.202 32.994,79.897 27.800 C 79.281 17.309,71.397 9.109,64.447 11.730 M102.000 20.525 C 102.000 20.594,102.585 21.179,103.300 21.825 L 104.600 23.000 103.425 21.700 C 102.330 20.488,102.000 20.216,102.000 20.525 M89.750 24.300 C 88.567 25.925,88.202 26.752,89.177 25.600 C 90.078 24.534,90.919 23.200,90.689 23.200 C 90.613 23.200,90.190 23.695,89.750 24.300 M155.905 40.283 C 156.402 40.379,157.122 40.375,157.505 40.275 C 157.887 40.175,157.480 40.096,156.600 40.101 C 155.720 40.105,155.407 40.187,155.905 40.283 M186.100 40.276 C 186.485 40.376,187.115 40.376,187.500 40.276 C 187.885 40.175,187.570 40.093,186.800 40.093 C 186.030 40.093,185.715 40.175,186.100 40.276 M216.305 40.283 C 216.802 40.379,217.522 40.375,217.905 40.275 C 218.287 40.175,217.880 40.096,217.000 40.101 C 216.120 40.105,215.807 40.187,216.305 40.283 M148.400 41.400 C 147.094 42.147,147.551 42.155,149.254 41.416 C 149.994 41.094,150.330 40.831,150.000 40.830 C 149.670 40.829,148.950 41.086,148.400 41.400 M240.674 41.162 C 235.450 42.259,235.589 41.415,235.703 71.465 L 235.800 97.136 236.760 98.158 C 240.213 101.833,253.374 101.559,255.863 97.761 C 256.504 96.781,256.593 95.725,256.596 89.023 L 256.600 81.400 253.682 81.282 L 250.763 81.164 250.825 89.128 C 250.893 97.896,250.748 98.570,248.703 99.025 C 245.002 99.850,242.737 99.318,241.832 97.412 C 241.037 95.736,240.862 46.689,241.643 44.448 C 242.559 41.820,247.305 41.033,249.641 43.121 L 250.896 44.241 250.829 51.538 L 250.761 58.836 253.681 58.718 L 256.600 58.600 256.712 53.255 C 256.940 42.350,256.016 41.155,247.200 40.955 C 244.450 40.893,241.513 40.986,240.674 41.162 M291.800 41.512 C 287.785 43.130,288.024 41.177,288.006 72.569 L 287.989 100.000 290.795 100.000 L 293.600 100.000 293.600 85.000 L 293.600 70.000 298.400 70.000 L 303.200 70.000 303.200 85.000 L 303.200 100.000 306.000 100.000 L 308.800 100.000 308.800 72.250 L 308.800 44.501 307.500 43.092 C 305.385 40.800,295.929 39.849,291.800 41.512 M353.787 41.765 C 350.386 43.366,350.614 41.435,350.488 69.762 C 350.352 100.547,350.087 99.093,356.072 100.386 C 363.334 101.956,370.132 99.965,371.213 95.951 C 372.075 92.751,371.533 45.220,370.618 43.706 C 368.867 40.813,358.379 39.603,353.787 41.765 M266.000 70.600 L 266.000 100.000 273.800 100.000 C 281.333 100.000,281.600 99.973,281.600 99.200 C 281.600 98.443,281.333 98.400,276.600 98.400 L 271.600 98.400 271.600 69.800 L 271.600 41.200 268.800 41.200 L 266.000 41.200 266.000 70.600 M319.200 70.558 L 319.200 100.000 322.000 100.000 L 324.800 100.000 324.800 84.745 L 324.800 69.491 328.554 69.687 C 331.707 69.852,332.460 70.025,333.254 70.764 L 334.200 71.645 334.315 85.822 L 334.429 100.000 337.447 100.000 L 340.465 100.000 340.332 86.500 C 340.172 70.130,340.308 70.560,334.800 69.092 C 334.470 69.004,335.142 68.619,336.294 68.236 C 340.093 66.973,340.200 66.627,340.200 55.600 C 340.200 41.293,340.543 41.662,326.900 41.313 L 319.200 41.116 319.200 70.558 M301.149 42.442 C 303.145 43.138,303.200 43.505,303.200 56.150 L 303.200 67.953 298.399 68.076 L 293.598 68.200 293.599 57.150 C 293.600 51.073,293.716 45.519,293.858 44.809 C 294.333 42.434,297.850 41.292,301.149 42.442 M364.743 42.971 C 365.472 43.700,366.162 95.019,365.474 97.262 C 364.522 100.366,357.310 100.102,356.430 96.932 C 355.965 95.257,355.812 47.788,356.264 45.058 C 356.735 42.206,362.547 40.776,364.743 42.971 M331.661 42.946 C 334.355 43.454,334.454 43.903,334.413 55.454 C 334.368 68.453,334.547 68.093,328.100 68.164 L 324.800 68.200 324.800 55.400 L 324.801 42.600 327.500 42.635 C 328.985 42.655,330.857 42.794,331.661 42.946 M121.907 43.090 C 122.626 43.179,123.706 43.177,124.307 43.086 C 124.908 42.995,124.320 42.922,123.000 42.924 C 121.680 42.926,121.188 43.001,121.907 43.090 M67.293 46.000 C 67.293 46.770,67.375 47.085,67.476 46.700 C 67.576 46.315,67.576 45.685,67.476 45.300 C 67.375 44.915,67.293 45.230,67.293 46.000 M160.988 70.800 C 160.988 84.770,161.039 90.485,161.100 83.500 C 161.161 76.515,161.161 65.085,161.100 58.100 C 161.039 51.115,160.988 56.830,160.988 70.800 M221.200 56.800 L 221.200 67.600 217.007 67.600 L 212.813 67.600 212.697 57.100 L 212.580 46.600 212.590 57.200 L 212.600 67.800 217.100 67.913 L 221.600 68.026 221.600 57.013 C 221.600 50.956,221.510 46.000,221.400 46.000 C 221.290 46.000,221.200 50.860,221.200 56.800 M51.400 48.000 C 52.259 48.880,53.052 49.600,53.162 49.600 C 53.272 49.600,52.659 48.880,51.800 48.000 C 50.941 47.120,50.148 46.400,50.038 46.400 C 49.928 46.400,50.541 47.120,51.400 48.000 M129.772 55.400 C 129.772 60.460,129.829 62.475,129.899 59.877 C 129.969 57.280,129.968 53.140,129.898 50.677 C 129.828 48.215,129.771 50.340,129.772 55.400 M136.172 55.400 C 136.172 60.460,136.229 62.475,136.299 59.877 C 136.369 57.280,136.368 53.140,136.298 50.677 C 136.228 48.215,136.171 50.340,136.172 55.400 M197.763 52.800 C 197.763 56.430,197.823 57.915,197.898 56.100 C 197.972 54.285,197.972 51.315,197.898 49.500 C 197.823 47.685,197.763 49.170,197.763 52.800 M206.097 73.500 L 206.000 100.800 209.400 100.800 L 212.800 100.800 212.705 85.500 L 212.610 70.200 212.500 85.300 L 212.390 100.400 209.398 100.400 L 206.406 100.400 206.300 73.300 L 206.194 46.200 206.097 73.500 M190.955 52.200 C 190.956 55.060,191.020 56.178,191.097 54.683 C 191.174 53.189,191.174 50.849,191.096 49.483 C 191.018 48.118,190.955 49.340,190.955 52.200 M76.500 62.796 C 75.785 63.232,75.200 63.675,75.200 63.781 C 75.200 63.886,75.830 63.601,76.600 63.147 C 77.370 62.693,78.000 62.249,78.000 62.160 C 78.000 61.905,77.874 61.958,76.500 62.796 M134.278 67.413 C 133.660 67.956,133.314 68.400,133.508 68.400 C 133.702 68.400,134.283 67.950,134.800 67.400 C 135.995 66.128,135.731 66.134,134.278 67.413 M120.800 67.697 C 120.800 67.864,121.925 67.979,123.300 67.954 C 126.002 67.903,125.740 67.712,122.700 67.517 C 121.655 67.449,120.800 67.531,120.800 67.697 M45.683 68.456 C 38.904 71.807,41.222 81.993,48.765 81.999 C 55.327 82.003,58.413 74.449,53.753 69.789 C 51.642 67.678,48.356 67.135,45.683 68.456 M65.807 69.993 C 64.952 70.869,64.330 71.645,64.426 71.718 C 64.522 71.791,65.298 71.074,66.152 70.125 C 68.101 67.959,67.877 67.873,65.807 69.993 M120.800 70.320 C 120.800 70.496,121.475 70.575,122.300 70.497 C 124.872 70.252,125.082 70.095,122.900 70.046 C 121.745 70.021,120.800 70.144,120.800 70.320 M221.295 85.500 L 221.200 100.800 224.700 100.719 L 228.200 100.637 224.905 100.502 L 221.610 100.368 221.500 85.284 L 221.390 70.200 221.295 85.500 M136.000 86.800 L 136.000 100.400 133.005 100.400 L 130.011 100.400 129.900 86.900 L 129.789 73.400 129.694 87.100 L 129.600 100.800 133.000 100.800 L 136.400 100.800 136.400 87.000 C 136.400 79.410,136.310 73.200,136.200 73.200 C 136.090 73.200,136.000 79.320,136.000 86.800 M188.415 75.400 C 188.417 75.620,188.786 76.250,189.236 76.800 C 189.779 77.464,189.915 77.531,189.640 77.000 C 188.966 75.695,188.412 74.972,188.415 75.400 M69.600 78.523 C 69.600 78.602,70.352 79.270,71.270 80.008 C 72.189 80.746,72.796 81.117,72.620 80.832 C 72.370 80.429,72.675 80.357,73.997 80.510 C 74.931 80.618,75.831 80.926,75.997 81.196 C 76.186 81.501,76.393 81.536,76.546 81.288 C 76.953 80.629,75.827 80.010,73.782 79.770 C 72.719 79.645,71.343 79.281,70.725 78.961 C 70.106 78.641,69.600 78.444,69.600 78.523 M72.400 82.200 C 73.146 82.970,73.847 83.600,73.957 83.600 C 74.067 83.600,73.546 82.970,72.800 82.200 C 72.054 81.430,71.353 80.800,71.243 80.800 C 71.133 80.800,71.654 81.430,72.400 82.200 M197.764 88.600 C 197.763 92.340,197.823 93.924,197.897 92.120 C 197.971 90.315,197.972 87.255,197.898 85.320 C 197.825 83.384,197.764 84.860,197.764 88.600 M190.960 88.600 C 190.961 91.900,191.022 93.197,191.098 91.482 C 191.173 89.767,191.172 87.067,191.097 85.482 C 191.021 83.897,190.959 85.300,190.960 88.600 M115.900 100.693 C 116.835 100.777,118.365 100.777,119.300 100.693 C 120.235 100.609,119.470 100.540,117.600 100.540 C 115.730 100.540,114.965 100.609,115.900 100.693 M102.032 111.700 C 102.002 112.365,108.978 112.400,243.200 112.400 C 377.422 112.400,384.398 112.365,384.368 111.700 C 384.350 111.282,384.256 111.201,384.135 111.500 C 383.838 112.236,102.562 112.236,102.265 111.500 C 102.144 111.201,102.050 111.282,102.032 111.700 M161.067 123.067 C 160.277 123.856,160.889 124.396,162.500 124.333 L 164.200 124.266 162.700 124.109 C 160.265 123.854,160.984 123.248,163.900 123.097 L 166.600 122.957 163.967 122.878 C 162.518 122.835,161.213 122.920,161.067 123.067 M174.089 129.300 C 174.003 135.763,174.028 136.000,174.800 136.000 C 175.568 136.000,175.600 135.733,175.600 129.400 C 175.600 125.770,175.465 122.800,175.300 122.799 C 175.135 122.799,175.054 125.679,175.119 129.199 C 175.197 133.373,175.096 135.600,174.829 135.600 C 174.572 135.600,174.375 133.185,174.299 129.100 L 174.179 122.600 174.089 129.300 M285.600 129.400 C 285.600 135.733,285.632 136.000,286.400 136.000 C 287.128 136.000,287.200 135.733,287.200 133.022 L 287.200 130.044 289.100 129.894 L 291.000 129.744 288.900 129.672 L 286.800 129.600 286.800 132.600 C 286.800 134.333,286.631 135.600,286.400 135.600 C 286.150 135.600,286.000 133.255,286.000 129.366 L 286.000 123.132 288.601 123.266 C 290.031 123.340,291.201 123.265,291.201 123.100 C 291.200 122.935,289.940 122.800,288.400 122.800 L 285.600 122.800 285.600 129.400 M297.067 123.067 C 296.920 123.213,296.800 126.183,296.800 129.667 L 296.800 136.000 299.900 135.921 L 303.000 135.841 300.100 135.703 L 297.200 135.565 297.200 129.401 L 297.200 123.237 299.900 123.097 L 302.600 122.957 299.967 122.878 C 298.518 122.835,297.213 122.920,297.067 123.067 M323.700 123.092 C 326.939 123.239,327.883 123.838,325.300 124.109 L 323.800 124.266 325.529 124.333 C 326.980 124.389,327.237 124.287,327.125 123.700 C 327.011 123.105,326.510 122.996,323.796 122.976 L 320.600 122.952 323.700 123.092 M347.695 123.066 C 347.418 123.178,347.003 123.659,346.773 124.135 C 346.417 124.873,346.433 124.907,346.878 124.371 C 347.165 124.025,347.760 123.535,348.200 123.283 C 348.997 122.826,348.656 122.680,347.695 123.066 M351.158 123.129 C 351.465 123.344,351.606 123.807,351.471 124.160 C 351.336 124.512,351.412 124.800,351.640 124.800 C 352.278 124.800,351.880 123.084,351.200 122.901 C 350.701 122.766,350.694 122.804,351.158 123.129 M319.606 123.700 C 319.601 124.268,319.921 124.388,321.300 124.336 C 322.920 124.275,322.934 124.264,321.603 124.103 C 320.835 124.011,320.073 123.725,319.910 123.467 C 319.715 123.161,319.610 123.241,319.606 123.700 M166.600 124.000 L 165.000 124.286 166.700 124.343 C 167.635 124.374,168.400 124.220,168.400 124.000 C 168.400 123.780,168.355 123.626,168.300 123.657 C 168.245 123.688,167.480 123.842,166.600 124.000 M150.400 126.400 C 150.400 128.636,150.462 128.797,151.300 128.754 C 151.977 128.719,152.027 128.662,151.500 128.524 C 150.327 128.218,150.502 124.513,151.700 124.282 C 152.472 124.134,152.443 124.101,151.500 124.054 C 150.416 124.001,150.400 124.035,150.400 126.400 M255.600 126.400 C 255.600 127.720,255.735 128.800,255.900 128.801 C 256.065 128.801,256.139 127.825,256.065 126.633 C 255.940 124.629,256.000 124.451,256.865 124.287 C 257.710 124.126,257.694 124.104,256.700 124.054 C 255.616 124.001,255.600 124.035,255.600 126.400 M286.962 124.554 C 286.845 124.859,286.806 125.894,286.875 126.854 L 287.000 128.600 288.800 128.633 L 290.600 128.665 288.900 128.511 L 287.200 128.356 287.200 126.399 L 287.200 124.442 289.300 124.295 L 291.400 124.148 289.287 124.074 C 287.803 124.022,287.112 124.165,286.962 124.554 M299.300 124.287 C 299.905 124.378,300.895 124.378,301.500 124.287 C 302.105 124.195,301.610 124.120,300.400 124.120 C 299.190 124.120,298.695 124.195,299.300 124.287 M138.867 126.020 C 139.101 126.692,139.367 127.167,139.457 127.076 C 139.656 126.878,138.901 124.800,138.631 124.800 C 138.527 124.800,138.633 125.349,138.867 126.020 M324.087 130.071 C 324.010 134.901,323.918 135.563,323.300 135.724 C 322.644 135.896,322.645 135.910,323.313 135.954 C 324.353 136.021,324.438 135.489,324.299 129.779 L 324.174 124.600 324.087 130.071 M183.293 129.200 C 183.293 129.970,183.375 130.285,183.476 129.900 C 183.576 129.515,183.576 128.885,183.476 128.500 C 183.375 128.115,183.293 128.430,183.293 129.200 M300.100 128.694 C 301.145 128.776,302.000 129.004,302.000 129.200 C 302.000 129.396,301.145 129.624,300.100 129.706 L 298.200 129.856 300.300 129.928 C 302.157 129.992,302.400 129.908,302.400 129.200 C 302.400 128.492,302.157 128.408,300.300 128.472 L 298.200 128.544 300.100 128.694 M229.700 129.076 C 230.085 129.176,230.715 129.176,231.100 129.076 C 231.485 128.975,231.170 128.893,230.400 128.893 C 229.630 128.893,229.315 128.975,229.700 129.076 M150.400 132.771 C 150.400 135.073,150.282 135.572,149.700 135.724 C 149.173 135.862,149.223 135.919,149.900 135.954 C 150.757 135.998,150.800 135.858,150.800 133.000 C 150.800 131.350,150.710 130.000,150.600 130.000 C 150.490 130.000,150.400 131.247,150.400 132.771 M245.349 130.317 C 245.530 130.610,244.917 130.807,243.510 130.905 L 241.400 131.052 243.700 131.126 C 245.861 131.196,246.591 130.812,245.538 130.162 C 245.260 129.990,245.185 130.052,245.349 130.317 M255.600 132.771 C 255.600 135.073,255.482 135.572,254.900 135.724 C 254.373 135.862,254.423 135.919,255.100 135.954 C 255.957 135.998,256.000 135.858,256.000 133.000 C 256.000 131.350,255.910 130.000,255.800 130.000 C 255.690 130.000,255.600 131.247,255.600 132.771 M138.600 130.800 L 136.600 131.074 138.700 131.137 C 139.875 131.172,140.800 131.024,140.800 130.800 C 140.800 130.580,140.755 130.428,140.700 130.463 C 140.645 130.497,139.700 130.649,138.600 130.800 M268.800 130.880 C 268.800 131.056,269.745 131.179,270.900 131.154 C 273.082 131.105,272.872 130.948,270.300 130.703 C 269.475 130.625,268.800 130.704,268.800 130.880 M334.400 130.880 C 334.400 131.056,335.345 131.179,336.500 131.154 C 338.682 131.105,338.472 130.948,335.900 130.703 C 335.075 130.625,334.400 130.704,334.400 130.880 M314.493 132.400 C 314.493 133.170,314.575 133.485,314.676 133.100 C 314.776 132.715,314.776 132.085,314.676 131.700 C 314.575 131.315,314.493 131.630,314.493 132.400 M215.600 132.777 C 215.600 133.205,215.200 133.835,214.711 134.177 C 214.222 134.520,214.029 134.800,214.282 134.800 C 215.003 134.800,216.000 133.623,216.000 132.771 C 216.000 132.347,215.910 132.000,215.800 132.000 C 215.690 132.000,215.600 132.350,215.600 132.777 M183.688 134.613 C 184.286 135.243,184.847 135.677,184.935 135.579 C 185.023 135.480,184.533 134.965,183.847 134.434 L 182.600 133.469 183.688 134.613 M259.727 135.000 C 259.809 135.806,261.600 136.442,261.600 135.665 C 261.600 135.451,261.256 135.365,260.836 135.475 C 260.328 135.608,260.002 135.428,259.859 134.937 C 259.675 134.300,259.657 134.309,259.727 135.000 M143.200 135.171 C 143.200 135.375,142.885 135.624,142.500 135.724 C 141.973 135.862,142.023 135.919,142.700 135.954 C 143.254 135.982,143.600 135.769,143.600 135.400 C 143.600 135.070,143.510 134.800,143.400 134.800 C 143.290 134.800,143.200 134.967,143.200 135.171 M331.606 135.300 C 331.599 136.084,332.598 136.251,333.038 135.538 C 333.224 135.238,333.147 135.186,332.817 135.389 C 332.522 135.572,332.165 135.472,331.961 135.151 C 331.685 134.715,331.611 134.746,331.606 135.300 " stroke="none" fill="#f6afcf" fill-rule="evenodd"></path></g></svg>